<svg width="60" height="60" viewBox="0 0 60 60" fill="none" xmlns="http://www.w3.org/2000/svg">
<path d="M0 30C0 13.4315 13.4315 0 30 0V0C46.5685 0 60 13.4315 60 30V30C60 46.5685 46.5685 60 30 60V60C13.4315 60 0 46.5685 0 30V30Z" fill="#024AD8"/>
<path d="M0 30C0 13.4315 13.4315 0 30 0V0C46.5685 0 60 13.4315 60 30V30C60 46.5685 46.5685 60 30 60V60C13.4315 60 0 46.5685 0 30V30Z" fill="url(#paint0_linear_6314_86293)"/>
<path d="M32.5768 12.7891C32.3734 12.843 32.2187 12.9334 32.0588 13.0933C31.8901 13.2619 31.8832 13.2758 31.6015 13.9817C30.5898 16.5181 29.4232 18.7555 28.3263 20.261C27.8221 20.9529 27.3249 21.5058 26.7929 21.9613C25.2509 23.2825 22.6501 24.7028 19.507 25.9389C19.2949 26.0223 19.0758 26.1214 19.0185 26.1597C18.7907 26.3074 18.603 26.5769 18.5334 26.8533C18.4935 27.0115 18.5074 27.3401 18.5595 27.4966C18.6447 27.7469 18.8307 27.9798 19.048 28.1085C19.1089 28.1433 19.3696 28.2563 19.6287 28.3588C21.9113 29.2594 24.0792 30.3563 25.576 31.3681C26.7425 32.1574 27.4588 32.8285 28.2237 33.8507C29.3537 35.3597 30.5689 37.6753 31.6346 40.3491C31.7545 40.6516 31.878 40.9297 31.9162 40.9906C32.0466 41.1922 32.2604 41.3557 32.5038 41.4426C32.6029 41.4774 32.6498 41.4826 32.8776 41.4826C33.1053 41.4826 33.1523 41.4774 33.2514 41.4426C33.4965 41.3557 33.7103 41.1888 33.8442 40.9819C33.8807 40.9263 34.0041 40.6411 34.1223 40.3473C34.5656 39.2278 34.9707 38.3203 35.4975 37.2668C36.2033 35.8517 36.8569 34.7547 37.5315 33.8507C38.1712 32.9919 38.7241 32.439 39.5898 31.7888C41.0849 30.6658 43.3275 29.4836 45.9822 28.4179C46.3334 28.2771 46.6654 28.1346 46.7193 28.1033C46.9262 27.9781 47.1122 27.7417 47.1939 27.4966C47.2478 27.3366 47.26 27.0428 47.22 26.8638C47.173 26.6464 47.0722 26.4674 46.9088 26.3057C46.7419 26.1405 46.6706 26.104 46.0291 25.852C44.209 25.1357 42.2949 24.2004 40.9006 23.3451C39.5551 22.521 38.6337 21.7613 37.8913 20.8643C36.6518 19.3657 35.2628 16.7928 34.098 13.8408C33.8946 13.3263 33.832 13.2133 33.6634 13.0551C33.3852 12.796 32.9558 12.69 32.5768 12.7891ZM19.2566 33.8524C19.0289 33.9011 18.7942 34.061 18.6673 34.2523C18.6395 34.2957 18.5473 34.5043 18.4639 34.7164C17.8746 36.2167 17.2261 37.3433 16.6402 37.8909C16.1013 38.3916 14.9922 39.007 13.7283 39.5025C13.5232 39.5824 13.3111 39.6693 13.2589 39.6954C13.1337 39.758 12.9356 39.9562 12.8625 40.0935C12.6713 40.4586 12.7426 40.9228 13.0329 41.2131C13.1459 41.3261 13.2641 41.3904 13.5718 41.5086C14.1994 41.7486 14.9504 42.0945 15.4598 42.3779C16.2143 42.7986 16.675 43.1602 17.014 43.5983C17.5025 44.2276 18.0519 45.2829 18.4935 46.4355C18.6047 46.7241 18.6673 46.8423 18.7699 46.9483C18.9437 47.1291 19.1576 47.2282 19.4044 47.2404C19.6843 47.256 19.9121 47.1743 20.112 46.9866C20.2563 46.851 20.3102 46.7571 20.4492 46.3938C20.7639 45.5697 21.1846 44.7022 21.5636 44.099C21.9548 43.4783 22.2851 43.1306 22.8379 42.7603C23.4412 42.357 24.3712 41.8911 25.277 41.5399C25.6907 41.38 25.7464 41.3504 25.8907 41.2062C26.0315 41.0653 26.1097 40.921 26.1497 40.735C26.1966 40.509 26.1688 40.3056 26.0628 40.104C25.9254 39.8415 25.7881 39.7389 25.3552 39.5685C24.6563 39.2973 23.8775 38.934 23.3768 38.6489C23.0987 38.4907 22.6519 38.1951 22.4815 38.0595C21.9704 37.6492 21.5445 37.0442 21.0299 36.0064C20.8056 35.5544 20.6144 35.1198 20.4545 34.699C20.3032 34.3009 20.2737 34.2488 20.1363 34.1114C19.8964 33.8733 19.5852 33.7811 19.2566 33.8524Z" fill="white"/>
<defs>
<linearGradient id="paint0_linear_6314_86293" x1="0" y1="30" x2="72.7972" y2="30" gradientUnits="userSpaceOnUse">
<stop stop-color="#1F48D9"/>
<stop offset="0.504808" stop-color="#753BD4"/>
<stop offset="1" stop-color="#A831B5"/>
</linearGradient>
</defs>
</svg>
