<svg width="61" height="60" viewBox="0 0 61 60" fill="none" xmlns="http://www.w3.org/2000/svg">
<path d="M8.24623 30.0002H18.2462V27.5059H10.7406V10.0002H33.2349V22.4945H35.7292V7.50586H8.24623V30.0002ZM38.2462 10.0002H45.7292L45.7338 14.0977C45.7383 16.3539 45.7383 18.202 45.7338 18.2088C45.7292 18.2133 44.8857 17.3766 43.8585 16.3494L41.9877 14.4786L41.1147 15.3517C40.634 15.8324 40.2417 16.2338 40.2417 16.2474C40.2417 16.2587 41.7587 17.787 43.6158 19.6442L46.9877 23.0161L53.7564 16.2474L51.9877 14.4786L48.2462 18.2201V7.50586H38.2462V10.0002ZM20.7496 25.0093C20.7451 25.0138 20.7406 30.0796 20.7406 36.2632V47.5059H53.2349V25.0115L36.9968 25.007C28.0671 25.0025 20.7542 25.0047 20.7496 25.0093ZM50.7292 44.9889H23.2462L23.2349 27.5059H50.7406L50.7292 44.9889ZM5.74056 32.5217C5.73376 32.5376 5.73149 33.1 5.73376 33.7712L5.74056 34.9889H18.2349L18.2417 33.7417L18.2462 32.4945H11.9991C7.02174 32.4945 5.74737 32.5013 5.74056 32.5217ZM18.2462 52.4945L55.7406 52.4832V50.0115L18.2462 50.0002V52.4945Z" fill="#212121"/>
</svg>
