<svg width="61" height="60" viewBox="0 0 61 60" fill="none" xmlns="http://www.w3.org/2000/svg">
<path d="M29.9477 7.52145C29.1585 7.57587 28.7164 7.62576 28.1563 7.72326C24.6755 8.33097 21.535 10.1428 19.247 12.8639C17.0996 15.4194 15.8501 18.6756 15.7549 21.9727L15.7413 22.4829L14.256 22.4965C12.6801 22.5101 12.5916 22.5169 12.095 22.6326C10.2266 23.0702 8.73904 24.594 8.34902 26.4716C8.24471 26.9795 8.24471 27.0044 8.25151 31.4171L8.26058 35.5895L8.31047 35.8503C8.7277 38.0226 10.349 39.6054 12.5123 39.9478C12.7481 39.984 12.9613 39.9886 15.0157 39.9886H17.2606L17.408 39.9319C17.7209 39.8094 17.9613 39.5963 18.1041 39.3128C18.2583 39.0067 18.247 39.7051 18.247 30.4081C18.247 25.0543 18.256 21.8502 18.2697 21.6552C18.383 20.1042 18.7345 18.7074 19.3604 17.331C21.0837 13.5283 24.6234 10.8253 28.7458 10.1609C32.0633 9.62576 35.4715 10.4512 38.1653 12.4444C40.9272 14.4874 42.7232 17.5577 43.1449 20.9523C43.2379 21.7165 43.2379 21.7119 43.2311 30.7936L43.222 39.5351L43.1721 39.8797C42.9227 41.5985 42.281 43.0611 41.213 44.3469C40.9363 44.6802 40.3309 45.2811 40.0157 45.5373C39.0225 46.3378 37.8864 46.9115 36.6937 47.2176C36.3399 47.3083 35.7753 47.4171 35.7481 47.4013C35.739 47.3945 35.73 47.2131 35.73 46.9976C35.73 46.5509 35.696 46.3695 35.5599 46.0793C35.315 45.5645 34.8864 45.2108 34.3127 45.0521C34.1336 45.0022 34.1087 45.0022 32.2152 44.9931C30.1903 44.984 29.8501 44.9954 29.5712 45.0815C29.0746 45.2335 28.6733 45.5736 28.442 46.043C28.247 46.4353 28.2583 46.2539 28.2583 48.7641V50.9863L28.3331 51.2017C28.535 51.7868 28.9545 52.2063 29.5395 52.4081L29.7549 52.4829H31.9771C34.4873 52.4829 34.3059 52.4942 34.6982 52.2992C35.1653 52.0679 35.4987 51.6779 35.6642 51.1677C35.7096 51.0271 35.7164 50.9523 35.7254 50.4874C35.73 50.1995 35.7413 49.9591 35.7504 49.95C35.7572 49.941 35.9068 49.9115 36.0814 49.8865C37.993 49.6099 39.739 48.882 41.2742 47.7233C42.1449 47.0657 43.0021 46.1836 43.6529 45.2766C44.12 44.6235 44.6007 43.7573 44.9 43.0271C45.2492 42.1745 45.5463 41.0589 45.6438 40.2199L45.671 39.9999H47.0678C47.8842 39.9999 48.569 39.9908 48.7141 39.975C49.8774 39.8616 50.9658 39.3468 51.7844 38.5237C52.5077 37.7958 52.9703 36.9069 53.1721 35.8503L53.222 35.5895L53.2311 31.4171C53.2356 28.4262 53.2311 27.1722 53.213 26.9886C53.0406 25.2788 51.9839 23.7686 50.4352 23.0135C49.9454 22.7754 49.4941 22.6348 48.9454 22.5464C48.7549 22.5169 48.4397 22.5078 47.2266 22.4965L45.7413 22.4829L45.7254 21.9727C45.6529 19.4625 44.9114 16.9546 43.6007 14.78C41.857 11.8797 39.1767 9.64163 36.0361 8.46249C34.6325 7.93641 33.2107 7.63029 31.6846 7.53052C31.3626 7.50784 30.213 7.50331 29.9477 7.52145ZM15.73 31.2471V37.5056H14.4443C13.6438 37.5056 13.0792 37.4965 12.9522 37.4806C12.6574 37.4444 12.3966 37.365 12.1132 37.2221C11.4556 36.8911 11.0066 36.3264 10.8048 35.5759L10.7526 35.3854L10.7458 31.3605C10.7413 27.8185 10.7436 27.3083 10.7753 27.111C10.8592 26.5668 11.1064 26.0951 11.5077 25.7097C11.832 25.399 12.1585 25.2085 12.5894 25.0838L12.7935 25.0249L14.256 25.0112C15.061 25.0044 15.7209 24.9954 15.7254 24.9931C15.7254 24.9931 15.73 27.8049 15.73 31.2471ZM48.8932 25.0838C49.3241 25.2085 49.6506 25.399 49.9749 25.7097C50.3762 26.0951 50.6234 26.5668 50.7073 27.111C50.739 27.3083 50.7413 27.8185 50.7368 31.3605L50.73 35.3854L50.6778 35.5759C50.476 36.3264 50.027 36.8911 49.3694 37.2221C49.0769 37.3695 48.8161 37.4466 48.5055 37.4829C48.3581 37.4988 47.8411 37.5056 47.0111 37.501L45.7413 37.4942L45.7345 31.2697C45.7322 27.8457 45.7345 25.0339 45.739 25.0226C45.7436 25.0067 46.247 25.0044 47.2175 25.0112L48.6891 25.0249L48.8932 25.0838Z" fill="#212121"/>
</svg>
