<svg width="61" height="60" viewBox="0 0 61 60" fill="none" xmlns="http://www.w3.org/2000/svg">
<path d="M10.4123 12.5112C9.952 12.5429 9.3647 12.6722 8.94293 12.8355C7.20824 13.5067 6.00642 15.0622 5.77059 16.9398C5.72751 17.2935 5.72751 42.7085 5.77059 43.0622C5.91345 44.1892 6.39871 45.2073 7.16515 45.9897C7.9452 46.7878 8.92252 47.2822 10.0495 47.4545C10.3103 47.4931 11.1425 47.4953 30.7525 47.4953C50.3828 47.4953 51.1924 47.4931 51.4441 47.4545C53.1221 47.1869 54.4735 46.2096 55.2173 44.7175C55.4735 44.2028 55.6368 43.6541 55.7116 43.0622C55.7547 42.7085 55.7547 17.2935 55.7116 16.9398C55.5234 15.4364 54.723 14.1393 53.4804 13.3185C52.8976 12.9352 52.2332 12.6813 51.4667 12.5475C51.2377 12.5089 50.4305 12.5067 30.8772 12.5044C19.6844 12.5044 10.4758 12.5067 10.4123 12.5112ZM50.9112 15.0123C51.333 15.0441 51.689 15.1552 52.011 15.3479C52.5983 15.7039 52.9747 16.2096 53.1742 16.9171C53.2241 17.0872 53.2241 17.1053 53.2309 19.7901L53.2377 22.4953H8.24452L8.25132 19.7901C8.25812 17.1053 8.25812 17.0872 8.30801 16.9171C8.38737 16.6359 8.48942 16.3956 8.60733 16.2028C9.03137 15.5157 9.73885 15.0781 10.5257 15.0146C10.8545 14.9874 50.5756 14.9851 50.9112 15.0123ZM53.2355 35.1234C53.2355 43.4931 53.2445 42.9035 53.0971 43.3253C52.8046 44.162 52.0813 44.7901 51.2173 44.9534C51.0495 44.9851 49.02 44.9897 30.7411 44.9897C13.2944 44.9897 10.4259 44.9851 10.2831 44.9579C9.39871 44.7878 8.67989 44.1688 8.38511 43.3253C8.23771 42.9035 8.24678 43.4931 8.24678 35.1234V27.5067H53.2355V35.1234Z" fill="#212121"/>
</svg>
