<svg width="61" height="60" viewBox="0 0 61 60" fill="none" xmlns="http://www.w3.org/2000/svg">
<path d="M9.73595 8.99425L8.8584 9.87407L13.55 14.5679L10.4706 29.0759L12.6022 31.221C13.7745 32.4001 19.4548 38.1235 25.2257 43.9353L35.7178 54.5067L55.1691 35.06L50.4775 30.3344C47.897 27.738 42.2189 22.0192 37.8607 17.6292C33.5024 13.2391 29.9264 9.64504 29.9128 9.64051C29.9015 9.63824 26.5999 10.3344 22.5772 11.187L15.2643 12.7403L12.9514 10.4274C11.6793 9.15752 10.6339 8.1167 10.6271 8.1167C10.6203 8.1167 10.2212 8.51126 9.73595 8.99425ZM39.7133 23.0441C45.5477 28.9194 50.6158 34.0283 50.9786 34.3933L51.6339 35.0577L43.6883 43.0033C39.3165 47.3752 35.7337 50.9512 35.7269 50.9512C35.6997 50.9512 13.2008 28.2709 13.2053 28.246C13.2303 28.085 15.6475 16.7176 15.6589 16.7063C15.6679 16.6972 16.2394 17.255 16.9287 17.9444L18.1849 19.2006L18.0126 19.5475C17.6634 20.255 17.5069 20.8673 17.482 21.6337C17.4525 22.5181 17.6294 23.3208 18.0239 24.0872C19.2779 26.5294 22.3074 27.5067 24.7473 26.255C25.7087 25.7607 26.4774 24.9761 26.9559 24.0011C27.3096 23.2777 27.4638 22.6088 27.4616 21.7902C27.4593 21.0033 27.3096 20.3389 26.9786 19.6473C25.77 17.1303 22.7541 16.0895 20.253 17.3253L19.9808 17.4591L18.677 16.1552C17.8153 15.2936 17.3867 14.8491 17.4072 14.8423C17.4366 14.831 29.0466 12.3639 29.0897 12.3593C29.0965 12.3571 33.8765 17.1666 39.7133 23.0441ZM22.736 19.3185C23.3278 19.3911 23.8244 19.6292 24.2348 20.0419C25.5795 21.3843 24.9877 23.6745 23.1577 24.2029C22.7314 24.3276 22.2643 24.3321 21.8176 24.2165C21.584 24.1552 21.1804 23.958 20.9786 23.806C20.3074 23.3004 19.9332 22.509 19.9786 21.6881C19.9899 21.4568 20.0421 21.1439 20.0716 21.1122C20.0784 21.1054 20.5727 21.5884 21.1668 22.1825L22.2484 23.2641L24.0058 21.5067L22.9514 20.4523C22.3709 19.8718 21.8969 19.3911 21.8969 19.382C21.8969 19.3639 21.9945 19.3412 22.1872 19.3185C22.4117 19.2936 22.5228 19.2936 22.736 19.3185Z" fill="#212121"/>
</svg>
