<svg width="61" height="60" viewBox="0 0 61 60" fill="none" xmlns="http://www.w3.org/2000/svg">
<path d="M30.1964 5.01372C28.3188 5.06587 26.473 5.45363 24.6862 6.16791C20.3891 7.889 16.99 11.4219 15.4367 15.7802C14.2281 19.1724 14.1782 22.8958 15.3007 26.3176C17.0853 31.762 21.6453 35.889 27.2327 37.118C28.4095 37.3765 29.4866 37.4922 30.7519 37.4922C31.5388 37.4922 31.922 37.4695 32.6227 37.3901C35.6612 37.0387 38.5138 35.8436 40.9107 33.9207C45.6181 30.1407 47.8358 24.0953 46.693 18.152C45.5184 12.0409 40.8766 7.09535 34.8449 5.52392C33.3392 5.13163 31.8585 4.96836 30.1964 5.01372ZM32.0558 7.5602C34.8721 7.85045 37.3937 8.9026 39.5388 10.6849C42.0603 12.7779 43.7633 15.7439 44.3007 18.9706C44.4481 19.8686 44.4912 20.4876 44.4753 21.4944C44.4594 22.4899 44.3959 23.0953 44.21 24.0137C43.8698 25.694 43.1828 27.3584 42.2213 28.8164C41.312 30.1974 40.1193 31.4378 38.7451 32.4309C37.6884 33.1929 36.3256 33.889 35.083 34.2994C34.1782 34.5965 33.2531 34.8028 32.3279 34.9094C31.3098 35.0251 29.9605 35.0182 28.9764 34.8867C25.9855 34.4922 23.2893 33.1838 21.1329 31.0795C19.1624 29.1588 17.8109 26.6826 17.2712 24.0137C17.0853 23.0953 17.0218 22.4899 17.0059 21.4944C16.99 20.5103 17.0308 19.8845 17.1714 19.0251C17.9878 14.0024 21.5478 9.82324 26.3868 8.20873C27.5274 7.82777 28.6408 7.61236 29.9469 7.51938C30.2576 7.49898 31.7224 7.52619 32.0558 7.5602ZM33.8698 20.1022C30.7837 23.1883 28.2485 25.7144 28.2349 25.7144C28.2236 25.7144 27.0921 24.5942 25.7247 23.2269L23.2349 20.7371L22.3574 21.6169L21.4775 22.4944L28.2463 29.2631L34.7429 22.7665C38.3166 19.1929 41.2395 16.2586 41.2395 16.2473C41.2395 16.2246 39.5161 14.4899 39.4934 14.4899C39.4866 14.4899 36.956 17.016 33.8698 20.1022ZM20.7406 46.0319C20.7406 51.7484 20.7474 54.9434 20.7633 54.9389C20.7746 54.9343 23.0172 53.0182 25.7451 50.6804C28.473 48.3425 30.7202 46.4287 30.7406 46.4287C30.761 46.4287 33.0082 48.3425 35.7361 50.6804C38.4662 53.0182 40.7066 54.9343 40.7202 54.9389C40.7315 54.9434 40.7406 51.5647 40.7406 46.0319V37.1158L40.6907 37.1475C40.1624 37.4876 39.0943 38.0591 38.4503 38.347L38.2576 38.4332L38.2349 49.5262L30.7406 43.1044L23.2463 49.5262L23.2236 38.4332L22.9968 38.3312C22.3234 38.0251 21.312 37.4831 20.7927 37.1475L20.7406 37.1158V46.0319Z" fill="#212121"/>
</svg>
