<svg width="60" height="60" viewBox="0 0 60 60" fill="none" xmlns="http://www.w3.org/2000/svg">
<path d="M12.6925 12.5115C12.6879 12.5228 12.4045 14.2099 12.0621 16.2643L11.4408 20.0013H7.50653V22.4956H20.0009V20.0013H13.9918V19.9491C13.9918 19.872 14.8013 15.0421 14.8195 15.0126C14.8421 14.9764 40.9963 14.9809 41.0099 15.0172C41.0167 15.033 40.2412 19.7156 39.2888 25.4208C38.3365 31.126 37.5587 35.7972 37.5632 35.8018C37.5655 35.8063 37.6766 35.7632 37.8081 35.7065C38.4975 35.4117 39.18 35.219 39.9306 35.1033C40.0848 35.0784 40.2117 35.058 40.2163 35.0535C40.2185 35.0489 40.5972 32.7881 41.0575 30.0285L41.8943 25.0126L44.4748 25.0058C46.9215 25.0013 47.053 25.0036 47.053 25.0421C47.053 25.0625 46.6857 27.2825 46.239 29.9741C45.79 32.6634 45.4204 34.8925 45.4158 34.9287L45.409 34.99H47.9986C49.7083 34.99 50.5927 34.9968 50.6018 35.0126C50.6086 35.024 50.409 36.4775 50.1551 38.2394L49.697 41.4412L49.7696 41.7587C49.8557 42.1374 49.9192 42.4979 49.96 42.8698C50.0009 43.2462 49.9986 44.2417 49.9555 44.6271C49.9374 44.7949 49.9215 44.9469 49.9215 44.9627C49.9215 44.9854 50.112 44.9922 50.8127 44.9968C51.6879 45.0013 51.7038 45.0013 51.7129 44.9559C51.7197 44.931 52.443 39.8993 53.3229 33.7768C54.2027 27.6521 54.9283 22.609 54.9351 22.5682L54.9487 22.4956H48.6312C45.1573 22.4956 42.3138 22.4911 42.3138 22.4843C42.3138 22.4775 42.6857 20.2371 43.1415 17.507C43.5972 14.7768 43.9691 12.5319 43.9691 12.5183C43.9691 12.4911 12.7083 12.4866 12.6925 12.5115ZM52.0462 25.0739C52.0281 25.2235 50.9963 32.3981 50.9873 32.4435L50.9759 32.4956H48.3523L48.9737 28.77C49.3138 26.7224 49.5972 25.0353 49.6018 25.024C49.6063 25.0081 50.0326 25.0036 50.8308 25.0058L52.053 25.0126L52.0462 25.0739ZM4.99859 25.024C4.99405 25.0353 4.99179 25.5977 4.99405 26.2711L5.00086 27.4956L22.4952 27.507V25.0126L13.7514 25.0081C7.93736 25.0036 5.00312 25.0081 4.99859 25.024ZM7.50653 32.4956H8.42489C9.32966 32.4956 9.34326 32.4956 9.34326 32.541C9.34326 32.5659 8.87841 35.3732 8.31151 38.7791C7.74235 42.1872 7.28204 44.9786 7.28657 44.9832C7.30471 44.999 10.0802 44.99 10.0802 44.9741C10.0802 44.9628 10.0643 44.8176 10.0462 44.6498C9.99859 44.2099 10.0031 43.1963 10.0553 42.7677C10.1301 42.1464 10.248 41.5999 10.4226 41.0648C10.4975 40.838 10.5927 40.2938 11.2004 36.6566L11.8943 32.507L17.5065 32.4956V30.0013H7.50653V32.4956ZM18.2208 37.5228C17.1732 37.6135 16.0734 38.0058 15.2276 38.5909C14.7582 38.9151 14.2185 39.4117 13.892 39.8199C13.3931 40.4435 12.9714 41.2507 12.756 41.9877C12.2798 43.6181 12.4839 45.3777 13.316 46.8335C14.7287 49.3006 17.5791 50.507 20.3274 49.7972C22.0326 49.3573 23.5111 48.1691 24.3092 46.5999C24.6607 45.9061 24.8625 45.2417 24.9578 44.4662C25.0099 44.0398 24.9918 43.1714 24.9238 42.77C24.8285 42.2213 24.6857 41.7337 24.4748 41.2485C23.5768 39.1804 21.6108 37.7541 19.3455 37.5296C19.1301 37.5092 18.434 37.5047 18.2208 37.5228ZM19.2344 40.0353C19.8557 40.1169 20.4294 40.346 20.9646 40.7247C21.2072 40.897 21.6108 41.3029 21.799 41.5659C22.0893 41.9764 22.3206 42.507 22.4317 43.024C22.4997 43.3414 22.5043 44.0716 22.4408 44.4117C21.9827 46.8788 19.3387 48.2076 17.0825 47.1079C16.078 46.6158 15.3206 45.6385 15.078 44.5183C15.0099 44.1963 14.9918 43.5251 15.0462 43.1872C15.3614 41.1691 17.2208 39.77 19.2344 40.0353ZM40.7265 37.5206C40.1755 37.5863 39.9328 37.6317 39.5247 37.7473C38.4362 38.0557 37.3727 38.7179 36.6267 39.5478C35.8036 40.4662 35.2911 41.5319 35.078 42.7677C35.0099 43.1714 34.9918 44.0398 35.0439 44.4662C35.2072 45.8063 35.7718 47.0308 36.663 47.99C38.3365 49.7859 40.8535 50.4457 43.1755 49.6952C46.0349 48.77 47.8331 45.931 47.4476 42.9491C47.3569 42.2507 47.1732 41.6476 46.8489 40.9877C46.5451 40.3686 46.1664 39.838 45.6698 39.3414C44.7015 38.3709 43.5269 37.7813 42.1324 37.5637C41.9056 37.5274 40.9192 37.4979 40.7265 37.5206ZM41.7242 40.033C43.3954 40.2575 44.6947 41.5251 44.9555 43.1872C45.0099 43.5251 44.9918 44.1986 44.9238 44.5092C44.468 46.5727 42.4929 47.8539 40.4566 47.414C38.9759 47.092 37.8399 45.9129 37.561 44.4117C37.4975 44.0716 37.502 43.3414 37.57 43.024C37.8603 41.6725 38.7877 40.6226 40.0712 40.1963C40.6086 40.0172 41.1777 39.9605 41.7242 40.033ZM27.4249 42.5909C27.4975 43.1192 27.5156 44.0535 27.4612 44.5705C27.443 44.7315 27.4294 44.8947 27.4294 44.9333L27.4272 45.0013H32.5746L32.5723 44.9446C32.5723 44.9129 32.5564 44.7541 32.5405 44.5931C32.4839 44.0716 32.5043 43.0557 32.5791 42.5795L32.5927 42.4956H27.4113L27.4249 42.5909Z" fill="#212121"/>
</svg>
